<?xml version="1.0" encoding="UTF-8" standalone="no"?> <svg xmlns="http://www.w3.org/2000/svg" viewBox="0 0 64 64"><defs><style>.cls-1{fill:#ef2ea1;}.cls-2{fill:#4b1a89;}</style></defs><title>owl</title><g id="Layer_1" data-name="Layer 1"><path class="cls-1" d="M22.75,43.54a17.72,17.72,0,0,1-.93,5.72,15.16,15.16,0,0,1-.75,1.91,17.94,17.94,0,0,1-2.87,4.4,19.57,19.57,0,0,1-1.51,1.51,29.55,29.55,0,0,1-7-4.68A21.33,21.33,0,0,1,3.52,29.6a19.92,19.92,0,0,1-1.65-4,15,15,0,0,1,2-.19c.23,0,.46,0,.7,0A18.12,18.12,0,0,1,20.92,35.61a15.3,15.3,0,0,1,.83,2A17.92,17.92,0,0,1,22.75,43.54Z"/></g><g id="Layer_3" data-name="Layer 3"><path class="cls-2" d="M13.86,24.29a7.59,7.59,0,0,0,3.39-.8l4.69,7.34a1,1,0,0,0,.84.46h0a1,1,0,0,0,.84-.45l4.79-7.27a7.6,7.6,0,0,0,3.23.73,7.79,7.79,0,1,0-4.92-1.8l-3.92,6-3.88-6.07a7.85,7.85,0,0,0-5-13.76,7.84,7.84,0,0,0,0,15.67Zm12-7.84a5.74,5.74,0,1,1,5.74,5.84A5.79,5.79,0,0,1,25.9,16.46Zm-12-5.83a5.84,5.84,0,1,1-5.74,5.83A5.79,5.79,0,0,1,13.86,10.62Z"/><path class="cls-2" d="M14.86,20a3.51,3.51,0,1,0-3.47-3.51A3.5,3.5,0,0,0,14.86,20Zm0-5a1.51,1.51,0,1,1-1.47,1.51A1.49,1.49,0,0,1,14.86,14.94Z"/><path class="cls-2" d="M30.64,20a3.51,3.51,0,1,0-3.47-3.51A3.5,3.5,0,0,0,30.64,20Zm0-5a1.51,1.51,0,1,1-1.47,1.51A1.49,1.49,0,0,1,30.64,14.94Z"/><path class="cls-2" d="M62.42,51.17,52,37.06c-2.07-4.78-4.75-9.2-8.2-12.09a21.79,21.79,0,0,0,.69-5.47c0-10-6.63-18.11-14.78-18.11H15.78C7.63,1.39,1,9.51,1,19.5A21,21,0,0,0,3.52,29.6,21.34,21.34,0,0,0,9.65,52.4c8.34,7.51,20.21,8.94,28,8.94a57.32,57.32,0,0,0,7.79-.5A70.79,70.79,0,0,0,57.3,62.61h0a1,1,0,0,0,1-1.11c0-.25-.2-1.71-.58-3.93l3.91-2.19.09-.06a2.95,2.95,0,0,0,.67-4.15ZM15.78,3.39H29.72c7,0,12.78,7.23,12.78,16.11S36.77,35.61,29.72,35.61H15.78C8.73,35.61,3,28.38,3,19.5S8.73,3.39,15.78,3.39ZM11,50.92A19,19,0,0,1,5,31.78a14.88,14.88,0,0,0,6.17,4.89c-.33,2.6.25,10,14.93,17.31a85.26,85.26,0,0,0,13.47,5.3C32.15,59.47,19.44,58.53,11,50.92Zm16,1.27C14.1,45.79,13,39.58,13.09,37.29a12.15,12.15,0,0,0,2.69.32H29.72c6,0,11.08-4.34,13.42-10.57,8.91,8.25,12.3,28.38,13,33.5A85.44,85.44,0,0,1,26.94,52.19Zm33.69,1.48-3.25,1.82a102.84,102.84,0,0,0-2.89-11.7l6.33,8.57a.95.95,0,0,1-.18,1.31Z"/></g></svg>